<?xml version="1.0" encoding="UTF-8" standalone="no"?>
<svg
   xmlns:dc="http://purl.org/dc/elements/1.1/"
   xmlns:cc="http://creativecommons.org/ns#"
   xmlns:rdf="http://www.w3.org/1999/02/22-rdf-syntax-ns#"
   xmlns:svg="http://www.w3.org/2000/svg"
   xmlns="http://www.w3.org/2000/svg"
   xmlns:sodipodi="http://sodipodi.sourceforge.net/DTD/sodipodi-0.dtd"
   xmlns:inkscape="http://www.inkscape.org/namespaces/inkscape"
   width="18"
   height="18"
   viewBox="0 0 18 18"
   id="svg7034"
   version="1.1"
   inkscape:version="0.91 r13725"
   sodipodi:docname="group_small.svg">
  <metadata
     id="metadata7042">
    <rdf:RDF>
      <cc:Work
         rdf:about="">
        <dc:format>image/svg+xml</dc:format>
        <dc:type
           rdf:resource="http://purl.org/dc/dcmitype/StillImage" />
        <dc:title></dc:title>
      </cc:Work>
    </rdf:RDF>
  </metadata>
  <defs
     id="defs7040" />
  <sodipodi:namedview
     pagecolor="#ffffff"
     bordercolor="#666666"
     borderopacity="1"
     objecttolerance="10"
     gridtolerance="10"
     guidetolerance="10"
     inkscape:pageopacity="0"
     inkscape:pageshadow="2"
     inkscape:window-width="640"
     inkscape:window-height="480"
     id="namedview7038"
     showgrid="false"
     inkscape:zoom="13.111111"
     inkscape:cx="9"
     inkscape:cy="9"
     inkscape:window-x="0"
     inkscape:window-y="0"
     inkscape:window-maximized="0"
     inkscape:current-layer="svg7034" />
  <path
     d="M6 8c1.11 0 2-.9 2-2s-.89-2-2-2c-1.1 0-2 .9-2 2s.9 2 2 2zm6 0c1.11 0 2-.9 2-2s-.89-2-2-2c-1.11 0-2 .9-2 2s.9 2 2 2zM6 9.2c-1.67 0-5 .83-5 2.5V13h10v-1.3c0-1.67-3.33-2.5-5-2.5zm6 0c-.25 0-.54.02-.84.06.79.6 1.34 1.4 1.34 2.44V13H17v-1.3c0-1.67-3.33-2.5-5-2.5z"
     id="path7036"
     style="fill:#808080" />
</svg>
